<?xml version="1.0" standalone="no"?>
<!DOCTYPE svg PUBLIC "-//W3C//DTD SVG 20010904//EN"
 "http://www.w3.org/TR/2001/REC-SVG-20010904/DTD/svg10.dtd">
<svg version="1.0" xmlns="http://www.w3.org/2000/svg"
 width="50pt" height="50pt" viewBox="0 0 256.000000 256.000000"
 preserveAspectRatio="xMidYMid meet">

<g transform="translate(0.000000,256.000000) scale(0.100000,-0.100000)"
fill="#000000" stroke="none">
<path d="M883 2118 c14 -183 37 -372 46 -381 6 -6 27 -13 48 -16 35 -6 39 -10
50 -51 19 -73 15 -197 -7 -264 -11 -33 -20 -72 -20 -88 0 -16 -6 -41 -14 -56
-7 -15 -21 -62 -30 -104 -10 -43 -22 -78 -27 -78 -5 0 -9 -18 -9 -40 0 -33 -3
-40 -20 -40 -16 0 -20 -7 -20 -36 0 -27 5 -37 20 -41 19 -5 20 -14 20 -134 0
-120 -1 -129 -22 -143 -16 -11 -22 -27 -24 -57 -2 -44 -15 -59 -51 -59 -22 0
-23 -4 -23 -85 l0 -85 480 0 480 0 0 85 c0 81 -1 85 -22 85 -37 0 -50 15 -52
59 -2 30 -8 46 -24 57 -21 14 -22 23 -22 143 0 120 1 129 20 134 29 8 29 77 0
77 -17 0 -20 7 -20 40 0 22 -4 40 -9 40 -4 0 -16 35 -26 78 -10 42 -24 89 -31
104 -8 15 -14 40 -14 56 0 16 -9 55 -20 88 -22 67 -26 171 -9 257 11 55 13 57
43 57 59 0 64 11 81 175 9 83 19 185 22 228 l6 77 -102 0 -101 0 0 -71 0 -70
-37 3 -38 3 -3 68 -3 67 -119 0 -120 0 0 -70 0 -70 -40 0 -40 0 0 70 0 70
-101 0 -102 0 6 -82z m125 20 c7 -7 12 -39 12 -75 l0 -63 100 0 100 0 0 58 c1
69 16 92 60 92 44 0 59 -23 60 -92 l0 -58 100 0 100 0 0 63 c0 64 11 87 40 87
33 0 39 -33 28 -134 l-12 -96 -316 0 -316 0 -12 96 c-8 73 -8 101 1 115 13 22
37 25 55 7z m576 -294 c20 -8 20 -33 0 -62 -15 -22 -17 -22 -304 -22 -287 0
-289 0 -304 22 -19 27 -21 54 -3 61 18 8 592 8 611 1z m-108 -139 c4 -9 0 -48
-8 -88 l-13 -72 -175 0 -175 0 -13 72 c-8 40 -12 79 -8 88 8 23 384 23 392 0z
m-8 -252 c6 -15 12 -40 12 -56 0 -15 5 -38 11 -49 19 -34 61 -199 66 -255 3
-29 9 -53 14 -53 5 0 9 -9 9 -20 0 -20 -7 -20 -300 -20 -293 0 -300 0 -300 20
0 11 4 20 9 20 5 0 11 24 14 53 5 56 47 221 66 255 6 11 11 34 11 49 0 16 6
41 13 56 l12 27 175 0 175 0 13 -27z m111 -532 c16 -10 11 -112 -9 -193 l-12
-48 -278 0 -278 0 -11 44 c-6 24 -14 76 -17 116 -6 56 -4 74 7 81 18 11 580
11 598 0z m35 -311 c32 -12 36 -54 7 -70 -26 -13 -640 -14 -675 0 -34 13 -36
57 -3 70 30 12 639 13 671 0z m81 -142 c32 -14 32 -36 -1 -48 -38 -15 -796
-13 -829 2 -31 14 -32 36 -2 48 34 14 800 13 832 -2z"/>
<path d="M432 1963 c-12 -2 -28 -13 -35 -24 -6 -10 -17 -19 -24 -19 -9 0 -13
-17 -13 -55 0 -44 5 -60 22 -77 26 -27 64 -48 84 -48 33 0 94 26 94 40 0 8 7
24 15 34 19 25 19 50 0 91 -22 45 -82 70 -143 58z m70 -56 c28 -22 33 -62 9
-86 -30 -30 -63 -27 -78 6 -15 32 -17 53 -4 53 5 0 11 9 14 20 6 23 34 26 59
7z"/>
<path d="M2060 1961 c-74 -18 -113 -96 -75 -147 8 -10 15 -26 15 -35 0 -25 97
-45 130 -27 54 28 70 54 70 113 0 40 -4 55 -14 55 -7 0 -20 9 -27 19 -16 22
-62 32 -99 22z m57 -61 c3 -11 9 -20 14 -20 13 0 11 -21 -3 -53 -27 -56 -111
-15 -92 45 14 46 71 65 81 28z"/>
<path d="M640 1861 c0 -10 7 -21 15 -25 23 -8 45 4 45 25 0 14 -7 19 -30 19
-23 0 -30 -5 -30 -19z"/>
<path d="M760 1861 c0 -20 32 -37 50 -26 5 3 10 15 10 26 0 14 -7 19 -30 19
-23 0 -30 -5 -30 -19z"/>
<path d="M1743 1864 c-8 -22 11 -37 36 -29 31 10 28 45 -4 45 -14 0 -28 -7
-32 -16z"/>
<path d="M1860 1861 c0 -10 7 -21 15 -25 23 -8 45 4 45 25 0 14 -7 19 -30 19
-23 0 -30 -5 -30 -19z"/>
<path d="M760 1740 c0 -16 7 -20 30 -20 23 0 30 4 30 20 0 16 -7 20 -30 20
-23 0 -30 -4 -30 -20z"/>
<path d="M1740 1740 c0 -16 7 -20 30 -20 23 0 30 4 30 20 0 16 -7 20 -30 20
-23 0 -30 -4 -30 -20z"/>
<path d="M773 1643 c-7 -2 -13 -14 -13 -24 0 -16 6 -20 28 -17 19 2 27 9 27
23 0 20 -19 28 -42 18z"/>
<path d="M1744 1635 c-8 -21 4 -35 32 -35 17 0 24 6 24 19 0 29 -46 43 -56 16z"/>
<path d="M767 1534 c-4 -4 -7 -18 -7 -31 0 -21 4 -24 28 -21 21 2 27 8 27 28
0 18 -6 26 -20 28 -12 2 -24 0 -28 -4z"/>
<path d="M887 1533 c-4 -3 -7 -17 -7 -30 0 -28 35 -33 42 -5 9 33 -14 56 -35
35z"/>
<path d="M1638 1528 c-8 -24 4 -48 24 -48 15 0 19 6 16 27 -3 29 -33 44 -40
21z"/>
<path d="M1744 1525 c-10 -25 4 -45 31 -45 20 0 25 5 25 24 0 34 -45 50 -56
21z"/>
<path d="M426 1380 c-52 -26 -65 -47 -66 -101 0 -32 6 -52 20 -67 29 -30 84
-52 112 -44 33 10 68 35 68 48 0 6 7 17 15 24 8 7 15 25 15 40 0 15 -7 33 -15
40 -8 7 -15 18 -15 24 -1 15 -39 41 -70 49 -15 3 -40 -2 -64 -13z m92 -65 c11
-11 5 -67 -9 -76 -50 -32 -106 16 -78 67 11 22 18 25 47 20 19 -3 37 -8 40
-11z"/>
<path d="M2058 1390 c-29 -9 -58 -33 -58 -48 0 -5 -7 -15 -15 -22 -8 -7 -15
-25 -15 -40 0 -15 7 -33 15 -40 8 -7 15 -18 15 -24 1 -18 48 -47 78 -48 37 0
76 16 101 43 29 31 29 107 1 137 -16 17 -87 56 -94 51 0 0 -13 -4 -28 -9z m72
-85 c11 -21 11 -29 -1 -51 -11 -22 -18 -25 -47 -20 -19 3 -37 8 -40 11 -11 11
-5 67 9 76 28 17 65 10 79 -16z"/>
<path d="M698 1302 c-23 -4 -23 -38 -1 -46 14 -6 33 8 33 24 0 14 -17 25 -32
22z"/>
<path d="M800 1280 c0 -23 4 -30 20 -30 16 0 20 7 20 30 0 23 -4 30 -20 30
-16 0 -20 -7 -20 -30z"/>
<path d="M1746 1295 c-6 -17 2 -45 14 -45 22 0 40 14 40 30 0 28 -44 41 -54
15z"/>
<path d="M1866 1298 c-21 -12 -20 -25 3 -38 25 -13 51 -3 51 20 0 21 -30 31
-54 18z"/>
<path d="M777 1102 c-12 -2 -17 -11 -15 -25 4 -27 45 -36 54 -12 8 21 -15 43
-39 37z"/>
<path d="M1744 1065 c-10 -25 4 -47 28 -43 17 2 24 11 26 31 3 23 0 27 -23 27
-14 0 -28 -7 -31 -15z"/>
<path d="M760 971 c0 -39 42 -58 54 -25 11 28 -3 54 -30 54 -20 0 -24 -5 -24
-29z"/>
<path d="M1743 944 c-8 -22 11 -37 36 -29 31 10 28 45 -4 45 -14 0 -28 -7 -32
-16z"/>
<path d="M764 865 c-9 -23 3 -45 25 -45 25 0 34 14 26 40 -7 23 -43 27 -51 5z"/>
<path d="M1740 820 c0 -16 7 -20 30 -20 23 0 30 4 30 20 0 16 -7 20 -30 20
-23 0 -30 -4 -30 -20z"/>
<path d="M425 807 c-50 -29 -65 -55 -65 -112 0 -40 4 -55 14 -55 7 0 20 -10
28 -21 11 -17 25 -22 60 -23 57 -1 93 18 113 59 20 43 20 105 0 105 -8 0 -15
8 -15 18 0 11 -13 21 -40 30 -47 14 -68 14 -95 -1z m91 -72 c10 -15 13 -32 8
-47 -14 -46 -71 -65 -81 -28 -3 11 -9 20 -14 20 -13 0 -11 21 4 53 16 36 60
37 83 2z"/>
<path d="M2033 807 c-18 -6 -33 -17 -33 -24 0 -8 -7 -25 -16 -38 -33 -50 14
-143 75 -147 55 -4 87 3 103 22 9 11 21 20 27 20 7 0 11 22 11 55 0 44 -5 60
-22 78 -47 46 -82 55 -145 34z m95 -74 c14 -32 16 -53 3 -53 -5 0 -11 -9 -14
-20 -10 -37 -67 -18 -81 28 -19 60 65 101 92 45z"/>
<path d="M640 741 c0 -26 15 -34 46 -27 21 6 23 9 14 26 -14 27 -60 27 -60 1z"/>
<path d="M760 741 c0 -22 37 -38 52 -23 17 17 1 42 -27 42 -18 0 -25 -5 -25
-19z"/>
<path d="M1744 715 c-8 -21 4 -35 32 -35 17 0 24 6 24 19 0 29 -46 43 -56 16z"/>
<path d="M1873 723 c-7 -2 -13 -13 -13 -24 0 -14 7 -19 30 -19 23 0 30 5 30
19 0 15 -23 35 -33 30 -1 0 -8 -3 -14 -6z"/>
</g>
</svg>
